<mxfile host="app.diagrams.net" modified="2023-05-17T07:34:01.888Z" agent="Mozilla/5.0 (Macintosh; Intel Mac OS X 10_15_7) AppleWebKit/537.36 (KHTML, like Gecko) Chrome/113.0.0.0 Safari/537.36 Edg/113.0.1774.35" etag="CcSfYQZNQrUMygtjEnM1" version="21.1.5" type="github">
  <diagram id="C5RBs43oDa-KdzZeNtuy" name="Page-1">
    <mxGraphModel dx="957" dy="562" grid="1" gridSize="10" guides="1" tooltips="1" connect="1" arrows="1" fold="1" page="1" pageScale="1" pageWidth="827" pageHeight="1169" math="0" shadow="0">
      <root>
        <mxCell id="WIyWlLk6GJQsqaUBKTNV-0" />
        <mxCell id="WIyWlLk6GJQsqaUBKTNV-1" parent="WIyWlLk6GJQsqaUBKTNV-0" />
        <mxCell id="34hItqsXbuOLqsZ-7lEG-3" style="edgeStyle=orthogonalEdgeStyle;rounded=0;orthogonalLoop=1;jettySize=auto;html=1;entryX=0.5;entryY=0;entryDx=0;entryDy=0;" edge="1" parent="WIyWlLk6GJQsqaUBKTNV-1" source="34hItqsXbuOLqsZ-7lEG-1" target="34hItqsXbuOLqsZ-7lEG-2">
          <mxGeometry relative="1" as="geometry" />
        </mxCell>
        <mxCell id="34hItqsXbuOLqsZ-7lEG-1" value="开始" style="ellipse;whiteSpace=wrap;html=1;" vertex="1" parent="WIyWlLk6GJQsqaUBKTNV-1">
          <mxGeometry x="260" y="320" width="90" height="60" as="geometry" />
        </mxCell>
        <mxCell id="34hItqsXbuOLqsZ-7lEG-5" value="" style="edgeStyle=orthogonalEdgeStyle;rounded=0;orthogonalLoop=1;jettySize=auto;html=1;" edge="1" parent="WIyWlLk6GJQsqaUBKTNV-1" source="34hItqsXbuOLqsZ-7lEG-2" target="34hItqsXbuOLqsZ-7lEG-4">
          <mxGeometry relative="1" as="geometry" />
        </mxCell>
        <mxCell id="34hItqsXbuOLqsZ-7lEG-6" value="有" style="edgeLabel;html=1;align=center;verticalAlign=middle;resizable=0;points=[];" vertex="1" connectable="0" parent="34hItqsXbuOLqsZ-7lEG-5">
          <mxGeometry x="-0.1544" y="-1" relative="1" as="geometry">
            <mxPoint as="offset" />
          </mxGeometry>
        </mxCell>
        <mxCell id="34hItqsXbuOLqsZ-7lEG-8" value="" style="edgeStyle=orthogonalEdgeStyle;rounded=0;orthogonalLoop=1;jettySize=auto;html=1;" edge="1" parent="WIyWlLk6GJQsqaUBKTNV-1" source="34hItqsXbuOLqsZ-7lEG-2">
          <mxGeometry relative="1" as="geometry">
            <mxPoint x="510" y="490" as="targetPoint" />
          </mxGeometry>
        </mxCell>
        <mxCell id="34hItqsXbuOLqsZ-7lEG-9" value="没有" style="edgeLabel;html=1;align=center;verticalAlign=middle;resizable=0;points=[];" vertex="1" connectable="0" parent="34hItqsXbuOLqsZ-7lEG-8">
          <mxGeometry x="-0.0695" relative="1" as="geometry">
            <mxPoint as="offset" />
          </mxGeometry>
        </mxCell>
        <mxCell id="34hItqsXbuOLqsZ-7lEG-2" value="判断apcu缓存里是否有号段最小、最大值数据" style="rhombus;whiteSpace=wrap;html=1;" vertex="1" parent="WIyWlLk6GJQsqaUBKTNV-1">
          <mxGeometry x="212.5" y="430" width="185" height="120" as="geometry" />
        </mxCell>
        <mxCell id="34hItqsXbuOLqsZ-7lEG-23" value="" style="edgeStyle=orthogonalEdgeStyle;rounded=0;orthogonalLoop=1;jettySize=auto;html=1;" edge="1" parent="WIyWlLk6GJQsqaUBKTNV-1" source="34hItqsXbuOLqsZ-7lEG-4" target="34hItqsXbuOLqsZ-7lEG-22">
          <mxGeometry relative="1" as="geometry" />
        </mxCell>
        <mxCell id="34hItqsXbuOLqsZ-7lEG-4" value="apcu_add,最小值+1" style="whiteSpace=wrap;html=1;" vertex="1" parent="WIyWlLk6GJQsqaUBKTNV-1">
          <mxGeometry x="245" y="690" width="120" height="60" as="geometry" />
        </mxCell>
        <mxCell id="34hItqsXbuOLqsZ-7lEG-12" value="" style="edgeStyle=orthogonalEdgeStyle;rounded=0;orthogonalLoop=1;jettySize=auto;html=1;" edge="1" parent="WIyWlLk6GJQsqaUBKTNV-1" source="34hItqsXbuOLqsZ-7lEG-10" target="34hItqsXbuOLqsZ-7lEG-11">
          <mxGeometry relative="1" as="geometry" />
        </mxCell>
        <mxCell id="34hItqsXbuOLqsZ-7lEG-14" value="抢锁成功" style="edgeLabel;html=1;align=center;verticalAlign=middle;resizable=0;points=[];" vertex="1" connectable="0" parent="34hItqsXbuOLqsZ-7lEG-12">
          <mxGeometry x="0.0588" y="2" relative="1" as="geometry">
            <mxPoint x="108" y="2" as="offset" />
          </mxGeometry>
        </mxCell>
        <mxCell id="34hItqsXbuOLqsZ-7lEG-20" value="" style="edgeStyle=orthogonalEdgeStyle;rounded=0;orthogonalLoop=1;jettySize=auto;html=1;entryX=1;entryY=0.5;entryDx=0;entryDy=0;" edge="1" parent="WIyWlLk6GJQsqaUBKTNV-1" source="34hItqsXbuOLqsZ-7lEG-10" target="34hItqsXbuOLqsZ-7lEG-4">
          <mxGeometry relative="1" as="geometry">
            <mxPoint x="565" y="600" as="targetPoint" />
            <Array as="points">
              <mxPoint x="565" y="720" />
            </Array>
          </mxGeometry>
        </mxCell>
        <mxCell id="34hItqsXbuOLqsZ-7lEG-21" value="否，阻塞直到文件锁释放" style="edgeLabel;html=1;align=center;verticalAlign=middle;resizable=0;points=[];" vertex="1" connectable="0" parent="34hItqsXbuOLqsZ-7lEG-20">
          <mxGeometry x="-0.1098" y="2" relative="1" as="geometry">
            <mxPoint y="-94" as="offset" />
          </mxGeometry>
        </mxCell>
        <mxCell id="34hItqsXbuOLqsZ-7lEG-10" value="加文件锁是否成功" style="rhombus;whiteSpace=wrap;html=1;" vertex="1" parent="WIyWlLk6GJQsqaUBKTNV-1">
          <mxGeometry x="510" y="450" width="110" height="80" as="geometry" />
        </mxCell>
        <mxCell id="34hItqsXbuOLqsZ-7lEG-16" value="" style="edgeStyle=orthogonalEdgeStyle;rounded=0;orthogonalLoop=1;jettySize=auto;html=1;" edge="1" parent="WIyWlLk6GJQsqaUBKTNV-1" source="34hItqsXbuOLqsZ-7lEG-11" target="34hItqsXbuOLqsZ-7lEG-15">
          <mxGeometry relative="1" as="geometry" />
        </mxCell>
        <mxCell id="34hItqsXbuOLqsZ-7lEG-11" value="请求guid服务端获取新的号段" style="whiteSpace=wrap;html=1;" vertex="1" parent="WIyWlLk6GJQsqaUBKTNV-1">
          <mxGeometry x="939.89" y="460" width="120" height="60" as="geometry" />
        </mxCell>
        <mxCell id="34hItqsXbuOLqsZ-7lEG-18" value="" style="edgeStyle=orthogonalEdgeStyle;rounded=0;orthogonalLoop=1;jettySize=auto;html=1;" edge="1" parent="WIyWlLk6GJQsqaUBKTNV-1" source="34hItqsXbuOLqsZ-7lEG-15" target="34hItqsXbuOLqsZ-7lEG-17">
          <mxGeometry relative="1" as="geometry" />
        </mxCell>
        <mxCell id="34hItqsXbuOLqsZ-7lEG-15" value="回写号段的最小最大值数据到apcu缓存中" style="whiteSpace=wrap;html=1;" vertex="1" parent="WIyWlLk6GJQsqaUBKTNV-1">
          <mxGeometry x="939.89" y="563" width="120" height="60" as="geometry" />
        </mxCell>
        <mxCell id="34hItqsXbuOLqsZ-7lEG-17" value="释放文件锁" style="whiteSpace=wrap;html=1;" vertex="1" parent="WIyWlLk6GJQsqaUBKTNV-1">
          <mxGeometry x="939.89" y="661" width="120" height="60" as="geometry" />
        </mxCell>
        <mxCell id="34hItqsXbuOLqsZ-7lEG-25" value="" style="edgeStyle=orthogonalEdgeStyle;rounded=0;orthogonalLoop=1;jettySize=auto;html=1;entryX=-0.016;entryY=0.501;entryDx=0;entryDy=0;entryPerimeter=0;" edge="1" parent="WIyWlLk6GJQsqaUBKTNV-1" source="34hItqsXbuOLqsZ-7lEG-22" target="34hItqsXbuOLqsZ-7lEG-31">
          <mxGeometry relative="1" as="geometry">
            <mxPoint x="490" y="870" as="targetPoint" />
          </mxGeometry>
        </mxCell>
        <mxCell id="34hItqsXbuOLqsZ-7lEG-27" value="是" style="edgeLabel;html=1;align=center;verticalAlign=middle;resizable=0;points=[];" vertex="1" connectable="0" parent="34hItqsXbuOLqsZ-7lEG-25">
          <mxGeometry x="-0.0105" y="1" relative="1" as="geometry">
            <mxPoint as="offset" />
          </mxGeometry>
        </mxCell>
        <mxCell id="34hItqsXbuOLqsZ-7lEG-29" value="" style="edgeStyle=orthogonalEdgeStyle;rounded=0;orthogonalLoop=1;jettySize=auto;html=1;" edge="1" parent="WIyWlLk6GJQsqaUBKTNV-1" source="34hItqsXbuOLqsZ-7lEG-22" target="34hItqsXbuOLqsZ-7lEG-28">
          <mxGeometry relative="1" as="geometry" />
        </mxCell>
        <mxCell id="34hItqsXbuOLqsZ-7lEG-30" value="否" style="edgeLabel;html=1;align=center;verticalAlign=middle;resizable=0;points=[];" vertex="1" connectable="0" parent="34hItqsXbuOLqsZ-7lEG-29">
          <mxGeometry x="0.0545" y="1" relative="1" as="geometry">
            <mxPoint as="offset" />
          </mxGeometry>
        </mxCell>
        <mxCell id="34hItqsXbuOLqsZ-7lEG-22" value="判断最小值是否大于设置的阈值百分比" style="rhombus;whiteSpace=wrap;html=1;" vertex="1" parent="WIyWlLk6GJQsqaUBKTNV-1">
          <mxGeometry x="200" y="810" width="210" height="120" as="geometry" />
        </mxCell>
        <mxCell id="34hItqsXbuOLqsZ-7lEG-28" value="返回唯一的id" style="whiteSpace=wrap;html=1;" vertex="1" parent="WIyWlLk6GJQsqaUBKTNV-1">
          <mxGeometry x="245" y="1040" width="120" height="60" as="geometry" />
        </mxCell>
        <mxCell id="34hItqsXbuOLqsZ-7lEG-35" style="edgeStyle=orthogonalEdgeStyle;rounded=0;orthogonalLoop=1;jettySize=auto;html=1;" edge="1" parent="WIyWlLk6GJQsqaUBKTNV-1" source="34hItqsXbuOLqsZ-7lEG-31">
          <mxGeometry relative="1" as="geometry">
            <mxPoint x="775" y="490" as="targetPoint" />
          </mxGeometry>
        </mxCell>
        <mxCell id="34hItqsXbuOLqsZ-7lEG-36" value="是" style="edgeLabel;html=1;align=center;verticalAlign=middle;resizable=0;points=[];" vertex="1" connectable="0" parent="34hItqsXbuOLqsZ-7lEG-35">
          <mxGeometry x="-0.2079" y="1" relative="1" as="geometry">
            <mxPoint as="offset" />
          </mxGeometry>
        </mxCell>
        <mxCell id="34hItqsXbuOLqsZ-7lEG-39" style="edgeStyle=orthogonalEdgeStyle;rounded=0;orthogonalLoop=1;jettySize=auto;html=1;entryX=0.5;entryY=0;entryDx=0;entryDy=0;" edge="1" parent="WIyWlLk6GJQsqaUBKTNV-1" source="34hItqsXbuOLqsZ-7lEG-31" target="34hItqsXbuOLqsZ-7lEG-38">
          <mxGeometry relative="1" as="geometry" />
        </mxCell>
        <mxCell id="34hItqsXbuOLqsZ-7lEG-40" value="否，不阻塞" style="edgeLabel;html=1;align=center;verticalAlign=middle;resizable=0;points=[];" vertex="1" connectable="0" parent="34hItqsXbuOLqsZ-7lEG-39">
          <mxGeometry x="-0.215" y="1" relative="1" as="geometry">
            <mxPoint as="offset" />
          </mxGeometry>
        </mxCell>
        <mxCell id="34hItqsXbuOLqsZ-7lEG-31" value="加文件锁是否成功" style="rhombus;whiteSpace=wrap;html=1;" vertex="1" parent="WIyWlLk6GJQsqaUBKTNV-1">
          <mxGeometry x="670" y="810" width="210" height="120" as="geometry" />
        </mxCell>
        <mxCell id="34hItqsXbuOLqsZ-7lEG-38" value="不阻塞，直接返回唯一的id" style="whiteSpace=wrap;html=1;" vertex="1" parent="WIyWlLk6GJQsqaUBKTNV-1">
          <mxGeometry x="715" y="1000" width="120" height="60" as="geometry" />
        </mxCell>
      </root>
    </mxGraphModel>
  </diagram>
</mxfile>
